# xmcd
# Track frame offsets:
# 150
# 16052
# 31285
# 47480
# 60810
# 76807
# 96890
# 111705
# 129990
# 143545
# 158107
#
# Disc length: 2319 seconds
# Revision: 0
# Processed by: cddbd v1.4PL0 Copyright (c) Steve Scherf et al.
# Submitted via: VisiTrax 2.9.5.180 - For more info visit www.synapsa.com
#
DISCID=7b090d0b
DTITLE=Jenna Raye - I love country music
DYEAR=2002
DGENRE=
TTITLE0=One step away
TTITLE1=It's my turn now
TTITLE2=That's what I'll say to you tomorrow
TTITLE3=Let goodbye mean goodbye
TTITLE4=You're real and you're mine
TTITLE5=Nothing lasts forever
TTITLE6=I love country music
TTITLE7=A way to say goodbye
TTITLE8=Not an ordinary woman
TTITLE9=That special feeling
TTITLE10=Take the "L" out of lover
EXTD=
EXTT0=
EXTT1=
EXTT2=
EXTT3=
EXTT4=
EXTT5=
EXTT6=
EXTT7=
EXTT8=
EXTT9=
EXTT10=
PLAYORDER=
